<svg xmlns="http://www.w3.org/2000/svg" viewBox="0 0 64 64">
  <defs>
    <linearGradient id="bg" x1="8%" x2="92%" y1="0%" y2="100%">
      <stop offset="0%" stop-color="#8E84F1"/>
      <stop offset="100%" stop-color="#6358C8"/>
    </linearGradient>
    <linearGradient id="accent" x1="0%" x2="100%" y1="0%" y2="100%">
      <stop offset="0%" stop-color="#FFB38A"/>
      <stop offset="100%" stop-color="#FF8E63"/>
    </linearGradient>
  </defs>
  <rect width="64" height="64" rx="18" fill="url(#bg)"/>
  <circle cx="20" cy="20" r="6.5" fill="#ffffff"/>
  <circle cx="44" cy="20" r="6.5" fill="#ffffff"/>
  <circle cx="15" cy="33" r="5.7" fill="#ffffff"/>
  <circle cx="49" cy="33" r="5.7" fill="#ffffff"/>
  <path fill="#ffffff" d="M32 28c-10.1 0-17.8 7.6-17.8 17 0 6.4 5.8 10.6 17.8 10.6s17.8-4.2 17.8-10.6C49.8 35.6 42.1 28 32 28z"/>
  <path fill="url(#accent)" d="M32 33.8c-4.3 0-7.8 3.1-7.8 7 0 2.7 2.6 4.5 7.8 4.5s7.8-1.8 7.8-4.5c0-3.9-3.5-7-7.8-7z"/>
</svg>
