<svg xmlns="http://www.w3.org/2000/svg" viewBox="0 0 64 64">
  <defs>
    <linearGradient id="bg" x1="0%" x2="100%" y1="0%" y2="100%">
      <stop offset="0%" stop-color="#8fe388"/>
      <stop offset="100%" stop-color="#2bb55d"/>
    </linearGradient>
  </defs>
  <rect width="64" height="64" rx="18" fill="url(#bg)"/>
  <path fill="#ffffff" d="M19 23c0-4.4 3.6-8 8-8 2 0 3.8.7 5.2 1.9C33.7 15.7 35.5 15 37.5 15c4.4 0 8 3.6 8 8v5.8c0 8.7-7 15.7-15.7 15.7S14 37.5 14 28.8V23zm8.5 2.3a2.8 2.8 0 1 0 0-5.6 2.8 2.8 0 0 0 0 5.6zm11.8 0a2.8 2.8 0 1 0 0-5.6 2.8 2.8 0 0 0 0 5.6zm-7.5 2.5c-2.9 0-5.3 2.2-5.6 5.1a1.6 1.6 0 0 0 1.6 1.8h8a1.6 1.6 0 0 0 1.6-1.8c-.3-2.9-2.7-5.1-5.6-5.1z"/>
</svg>
