<svg xmlns="http://www.w3.org/2000/svg" viewBox="0 0 120 120">
  <defs>
    <linearGradient id="petBg" x1="0%" x2="100%" y1="0%" y2="100%">
      <stop offset="0%" stop-color="#f2fff2"/>
      <stop offset="100%" stop-color="#d9f7de"/>
    </linearGradient>
  </defs>
  <rect width="120" height="120" rx="28" fill="url(#petBg)"/>
  <circle cx="42" cy="33" r="12" fill="#70cf7e"/>
  <circle cx="78" cy="33" r="12" fill="#70cf7e"/>
  <circle cx="30" cy="56" r="11" fill="#70cf7e"/>
  <circle cx="90" cy="56" r="11" fill="#70cf7e"/>
  <path fill="#33a95d" d="M60 41c-14.9 0-27 12-27 26.8 0 10.6 8.7 17.7 27 17.7s27-7.1 27-17.7C87 53 74.9 41 60 41z"/>
  <path fill="#27944d" d="M60 48.5c-10.2 0-18.4 8.2-18.4 18.4 0 7.1 5.4 11.7 18.4 11.7s18.4-4.6 18.4-11.7c0-10.2-8.2-18.4-18.4-18.4z" opacity=".22"/>
</svg>
